<?xml version="1.0" standalone="no"?>
<!DOCTYPE svg PUBLIC "-//W3C//DTD SVG 20010904//EN"
 "http://www.w3.org/TR/2001/REC-SVG-20010904/DTD/svg10.dtd">
<svg version="1.0" xmlns="http://www.w3.org/2000/svg"
 width="338.000000pt" height="313.000000pt" viewBox="0 0 338.000000 313.000000"
 preserveAspectRatio="xMidYMid meet">

<g transform="translate(0.000000,313.000000) scale(0.100000,-0.100000)"
fill="#000000" stroke="none">
<path d="M1690 2943 c-337 -34 -639 -174 -871 -403 -161 -159 -268 -325 -343
-532 -19 -53 -46 -108 -59 -122 -14 -15 -30 -47 -36 -71 l-11 -45 -22 20 c-55
51 -154 24 -189 -53 -18 -40 -19 -73 -19 -603 0 -489 2 -566 16 -608 47 -137
266 -250 484 -249 111 0 193 19 301 70 l76 35 79 -46 c373 -216 814 -253 1221
-100 457 171 793 569 890 1053 24 119 24 393 0 513 -99 494 -450 900 -922
1066 -176 62 -420 93 -595 75z m449 -87 c174 -44 346 -124 491 -229 145 -105
321 -317 405 -487 159 -321 184 -692 69 -1029 -135 -392 -464 -715 -860 -846
-194 -64 -467 -85 -667 -50 -150 26 -375 111 -484 182 l-23 15 43 31 c85 61
194 166 350 337 88 96 166 189 173 207 43 102 -24 197 -138 196 -67 -1 -101
-23 -245 -158 l-128 -120 -5 425 -5 425 -23 33 c-44 62 -110 78 -170 42 -18
-11 -33 -20 -35 -20 -1 0 -3 12 -4 26 -4 79 -68 144 -142 144 -37 0 -49 -6
-81 -37 -20 -21 -39 -45 -42 -53 -4 -12 -11 -9 -37 13 -18 15 -41 27 -52 27
-24 0 -24 6 5 82 53 141 134 281 230 393 28 33 55 66 61 73 21 26 173 151 234
192 84 56 244 131 351 164 152 48 218 55 430 52 170 -4 208 -7 299 -30z
m-1335 -934 c44 -39 46 -62 46 -457 0 -327 2 -375 15 -375 13 0 15 40 15 298
0 181 4 312 11 336 33 119 157 114 190 -8 7 -25 10 -114 9 -231 -6 -361 -1
-645 11 -645 6 0 76 62 155 138 79 75 161 145 182 155 79 37 173 -8 171 -82 0
-20 -3 -44 -7 -53 -11 -27 -293 -336 -376 -412 -214 -195 -385 -276 -585 -276
-102 0 -179 18 -276 64 -86 40 -127 75 -162 133 l-26 45 -5 562 c-5 558 -5
562 17 603 11 23 30 47 40 53 27 14 74 13 92 -2 44 -37 44 -39 49 -362 5 -286
6 -311 23 -314 16 -3 17 19 17 353 0 398 2 412 63 441 30 14 38 15 62 3 16 -8
38 -27 49 -42 20 -27 21 -41 24 -393 2 -312 5 -364 17 -364 13 0 15 52 15 375
0 416 2 428 62 465 36 22 70 20 102 -8z"/>
<path d="M2809 2163 c-68 -181 -163 -262 -274 -234 -59 15 -127 55 -190 113
-53 48 -83 58 -93 29 -7 -22 112 -127 189 -165 144 -72 269 -37 357 102 37 56
76 158 67 172 -13 20 -45 10 -56 -17z"/>
<path d="M1942 1978 c-48 -102 -83 -145 -140 -170 -83 -37 -196 4 -303 109
-47 45 -81 54 -87 22 -4 -20 69 -94 133 -135 77 -49 122 -64 188 -64 111 0
183 56 253 194 39 79 45 126 14 126 -14 0 -29 -21 -58 -82z"/>
<path d="M2218 1165 c-88 -32 -155 -96 -217 -207 -35 -62 -37 -93 -6 -93 13 0
30 19 53 60 72 129 142 185 247 199 85 11 209 -32 318 -111 39 -29 50 -33 62
-23 24 20 18 33 -38 74 -67 49 -139 85 -202 102 -64 17 -169 17 -217 -1z"/>
</g>
</svg>
